<svg id="Warstwa_1" data-name="Warstwa 1" xmlns="http://www.w3.org/2000/svg" xmlns:xlink="http://www.w3.org/1999/xlink" viewBox="0 0 729.94 289"><defs><style>.cls-1{fill:#3e79d6;}.cls-1,.cls-5,.cls-6,.cls-7{stroke:#000;stroke-miterlimit:10;}.cls-2{font-size:21.86px;}.cls-2,.cls-5{fill:#fff;}.cls-2,.cls-29,.cls-8{font-family:MyriadPro-Regular, Myriad Pro;}.cls-3{fill:#b2a1a8;}.cls-4{fill:#685d62;}.cls-6{fill:none;}.cls-8{font-size:10.94px;}.cls-9{letter-spacing:0em;}.cls-10{letter-spacing:0em;}.cls-11{letter-spacing:0em;}.cls-12{fill:url(#Gradient_bez_nazwy_56);}.cls-13{letter-spacing:-0.02em;}.cls-14{letter-spacing:0.06em;}.cls-15{letter-spacing:-0.01em;}.cls-16{letter-spacing:0em;}.cls-17{fill:#b2a190;}.cls-18{fill:url(#Gradient_bez_nazwy_66);}.cls-19{letter-spacing:0.01em;}.cls-20{letter-spacing:-0.01em;}.cls-21{letter-spacing:-0.01em;}.cls-22{letter-spacing:0.02em;}.cls-23{letter-spacing:0.02em;}.cls-24{fill:url(#Gradient_bez_nazwy_66-2);}.cls-25{letter-spacing:-0.01em;}.cls-26{letter-spacing:-0.01em;}.cls-27{letter-spacing:0.02em;}.cls-28{fill:url(#Gradient_bez_nazwy_66-3);}.cls-29{font-size:20.39px;fill:#008b00;}.cls-30{letter-spacing:-0.02em;}</style><linearGradient id="Gradient_bez_nazwy_56" x1="360.59" y1="116.27" x2="400.34" y2="84.08" gradientUnits="userSpaceOnUse"><stop offset="0" stop-color="#bde7da" stop-opacity="0.4"/><stop offset="0.21" stop-color="#d3da21" stop-opacity="0.4"/><stop offset="0.44" stop-color="#999e1f" stop-opacity="0.3"/><stop offset="1" stop-opacity="0.4"/></linearGradient><linearGradient id="Gradient_bez_nazwy_66" x1="617.83" y1="110.41" x2="657.57" y2="78.22" gradientUnits="userSpaceOnUse"><stop offset="0" stop-color="#70bada" stop-opacity="0.4"/><stop offset="0.21" stop-color="#86da21" stop-opacity="0.4"/><stop offset="0.44" stop-color="#99791f" stop-opacity="0.3"/><stop offset="1" stop-opacity="0.4"/></linearGradient><linearGradient id="Gradient_bez_nazwy_66-2" x1="213.55" y1="267.63" x2="253.3" y2="235.45" xlink:href="#Gradient_bez_nazwy_66"/><linearGradient id="Gradient_bez_nazwy_66-3" x1="475.96" y1="267.63" x2="515.71" y2="235.45" xlink:href="#Gradient_bez_nazwy_66"/></defs><title>steps1</title><line x1="192.78" y1="130.58" x2="8.97" y2="60.37"/><rect class="cls-1" x="100.88" y="0.5" width="29.21" height="29.21"/><text class="cls-2" transform="translate(109.89 22.27)">1</text><polygon class="cls-3" points="189.61 93.72 84.72 123.72 0 91.37 104.9 61.36 189.61 93.72"/><circle class="cls-4" cx="106.07" cy="95.23" r="2.69"/><circle class="cls-4" cx="111.44" cy="100.6" r="2.69"/><circle class="cls-4" cx="100.52" cy="100.6" r="2.69"/><circle class="cls-4" cx="106.07" cy="105.98" r="2.69"/><circle class="cls-4" cx="92.46" cy="89.86" r="2.69"/><circle class="cls-4" cx="97.84" cy="95.23" r="2.69"/><circle class="cls-4" cx="86.92" cy="95.23" r="2.69"/><circle class="cls-4" cx="92.46" cy="100.6" r="2.69"/><circle class="cls-4" cx="125.22" cy="87.17" r="2.69"/><circle class="cls-4" cx="130.59" cy="92.55" r="2.69"/><circle class="cls-4" cx="119.67" cy="92.55" r="2.69"/><circle class="cls-4" cx="125.22" cy="97.92" r="2.69"/><circle class="cls-4" cx="111.61" cy="81.8" r="2.69"/><circle class="cls-4" cx="116.99" cy="87.17" r="2.69"/><circle class="cls-4" cx="106.07" cy="87.17" r="2.69"/><circle class="cls-4" cx="111.61" cy="92.55" r="2.69"/><circle class="cls-4" cx="78.16" cy="85.83" r="2.69"/><circle class="cls-4" cx="83.53" cy="91.2" r="2.69"/><circle class="cls-4" cx="72.62" cy="91.2" r="2.69"/><circle class="cls-4" cx="78.16" cy="96.58" r="2.69"/><circle class="cls-4" cx="64.56" cy="80.46" r="2.69"/><circle class="cls-4" cx="69.93" cy="85.83" r="2.69"/><circle class="cls-4" cx="59.01" cy="85.83" r="2.69"/><circle class="cls-4" cx="64.56" cy="91.2" r="2.69"/><circle class="cls-4" cx="97.31" cy="77.77" r="2.69"/><circle class="cls-4" cx="102.68" cy="83.14" r="2.69"/><circle class="cls-4" cx="91.77" cy="83.14" r="2.69"/><circle class="cls-4" cx="97.31" cy="88.52" r="2.69"/><circle class="cls-4" cx="83.71" cy="72.4" r="2.69"/><circle class="cls-4" cx="89.08" cy="77.77" r="2.69"/><circle class="cls-4" cx="78.16" cy="77.77" r="2.69"/><circle class="cls-4" cx="83.71" cy="83.14" r="2.69"/><polygon class="cls-5" points="170.97 27.18 133.38 79.97 126.09 82.66 126.97 75.41 164.57 22.63 170.97 27.18"/><line class="cls-6" x1="164.61" y1="22.56" x2="164.57" y2="22.63"/><line class="cls-6" x1="171.01" y1="27.12" x2="170.97" y2="27.18"/><line class="cls-6" x1="164.61" y1="22.56" x2="171.02" y2="27.12"/><path class="cls-5" d="M209.2,182a2.25,2.25,0,0,1-1.85,1,2.16,2.16,0,0,1-1.29-.42l-.06,0-6.41-4.55-.06,0a2.28,2.28,0,0,1-.53-3.15,2.25,2.25,0,0,1,1.84-.93,2,2,0,0,1,.8.15,1.89,1.89,0,0,1,.51.26l6.52,4.65a2.16,2.16,0,0,1,.42.38A2.25,2.25,0,0,1,209.2,182Z" transform="translate(-35.03 -155.26)"/><rect class="cls-7" x="204.78" y="160.22" width="9.15" height="21.44" rx="4.37" ry="4.37" transform="translate(102.95 -245) rotate(35.46)"/><text class="cls-8" transform="translate(43.69 15.1)"><tspan class="cls-9">P<tspan class="cls-10" x="5.77" y="0">bS 20ul</tspan></tspan><tspan x="0" y="13.13">2500</tspan><tspan class="cls-11" x="22.46" y="13.13">r</tspan><tspan x="26.08" y="13.13">pm</tspan><tspan x="0" y="26.26">30s</tspan></text><line x1="455.91" y1="128.08" x2="272.1" y2="57.87"/><rect class="cls-1" x="364.18" y="0.5" width="29.21" height="29.21"/><text class="cls-2" transform="translate(373.64 22.27)">2</text><polygon class="cls-3" points="475.27 100.44 370.38 130.44 285.66 98.08 390.56 68.08 475.27 100.44"/><ellipse class="cls-12" cx="380.47" cy="100.17" rx="29.21" ry="18.7"/><polygon class="cls-5" points="438.27 31.91 400.68 84.69 393.38 87.38 394.28 80.13 431.87 27.34 438.27 31.91"/><line class="cls-6" x1="431.91" y1="27.28" x2="431.87" y2="27.34"/><line class="cls-6" x1="438.32" y1="31.84" x2="438.27" y2="31.9"/><line class="cls-6" x1="431.91" y1="27.28" x2="438.31" y2="31.84"/><path class="cls-5" d="M476.5,186.68a2.28,2.28,0,0,1-1.85.94,2.25,2.25,0,0,1-1.3-.41l-.05-.05-6.4-4.56-.07,0a2.25,2.25,0,0,1,1.32-4.09,2.16,2.16,0,0,1,.78.15,1.79,1.79,0,0,1,.51.27l6.53,4.64a1.91,1.91,0,0,1,.41.39A2.27,2.27,0,0,1,476.5,186.68Z" transform="translate(-35.03 -155.26)"/><rect class="cls-7" x="472.08" y="164.94" width="9.15" height="21.44" rx="4.37" ry="4.37" transform="translate(155.26 -399.18) rotate(35.46)"/><text class="cls-8" transform="translate(285.66 15.1)">TBAI[E<tspan class="cls-13" x="29.17" y="0">D</tspan><tspan class="cls-14" x="36.19" y="0">T</tspan><tspan x="42.29" y="0">]</tspan><tspan x="0" y="13.13">(when s</tspan><tspan class="cls-15" x="35.45" y="13.13">t</tspan><tspan x="39" y="13.13">o</tspan><tspan class="cls-16" x="45.01" y="13.13">p</tspan><tspan x="51.2" y="13.13">)</tspan><tspan x="0" y="26.26">30s</tspan></text><line x1="721.61" y1="129.42" x2="537.8" y2="59.21"/><rect class="cls-1" x="627.49" y="0.5" width="29.21" height="29.21"/><text class="cls-2" transform="translate(636.74 21.82)">3</text><polygon class="cls-17" points="729.94 99.09 625.05 129.1 540.33 96.74 645.23 66.73 729.94 99.09"/><ellipse class="cls-18" cx="637.7" cy="94.32" rx="29.21" ry="18.7"/><polygon class="cls-5" points="686.97 31.91 649.38 84.69 642.09 87.38 642.98 80.13 680.57 27.34 686.97 31.91"/><line class="cls-6" x1="680.61" y1="27.28" x2="680.57" y2="27.34"/><line class="cls-6" x1="687.02" y1="31.84" x2="686.97" y2="31.9"/><line class="cls-6" x1="680.62" y1="27.28" x2="687.02" y2="31.84"/><path class="cls-5" d="M725.2,186.68a2.28,2.28,0,0,1-1.85.94,2.23,2.23,0,0,1-1.3-.41l0-.05-6.4-4.56-.07,0a2.25,2.25,0,0,1,1.32-4.09,2.17,2.17,0,0,1,.79.15,1.93,1.93,0,0,1,.51.27l6.52,4.64a2.53,2.53,0,0,1,.42.38A2.27,2.27,0,0,1,725.2,186.68Z" transform="translate(-35.03 -155.26)"/><rect class="cls-7" x="720.78" y="164.94" width="9.15" height="21.44" rx="4.37" ry="4.37" transform="translate(201.38 -543.44) rotate(35.46)"/><text class="cls-8" transform="translate(545.23 15.1)"><tspan class="cls-19">M</tspan><tspan x="8.86" y="0">etanol</tspan><tspan class="cls-20" x="0" y="13.13">[</tspan><tspan class="cls-21" x="2.99" y="13.13">A</tspan><tspan class="cls-15" x="9.55" y="13.13">c</tspan><tspan x="14.39" y="13.13">e</tspan><tspan class="cls-15" x="19.87" y="13.13">t</tspan><tspan x="23.43" y="13.13">onit</tspan><tspan class="cls-22" x="41.69" y="13.13">r</tspan><tspan x="45.55" y="13.13">yle]</tspan><tspan x="0" y="26.26">(when sta</tspan><tspan class="cls-23" x="44.34" y="26.26">r</tspan><tspan x="48.18" y="26.26">t)</tspan><tspan x="0" y="39.4">30s</tspan></text><line x1="324.43" y1="289" x2="140.63" y2="218.78"/><rect class="cls-1" x="232.53" y="153.71" width="29.21" height="29.21"/><text class="cls-2" transform="translate(241.17 175.33)">4</text><polygon class="cls-17" points="242.62 221.8 327.34 254.16 222.45 284.17 137.73 251.81 242.62 221.8"/><ellipse class="cls-24" cx="233.43" cy="251.54" rx="29.21" ry="18.7"/><polygon class="cls-5" points="278.31 204.25 240.71 257.04 233.43 259.72 234.32 252.48 271.91 199.69 278.31 204.25"/><line class="cls-6" x1="271.96" y1="199.62" x2="271.91" y2="199.7"/><line class="cls-6" x1="278.36" y1="204.18" x2="278.31" y2="204.25"/><line class="cls-6" x1="271.96" y1="199.62" x2="278.36" y2="204.18"/><path class="cls-5" d="M316.53,359a2.23,2.23,0,0,1-3.13.53l-.06-.05-6.4-4.55-.06,0a2.25,2.25,0,0,1,1.31-4.09,2.17,2.17,0,0,1,.79.15,1.83,1.83,0,0,1,.5.26l6.53,4.65a1.87,1.87,0,0,1,.41.38A2.25,2.25,0,0,1,316.53,359Z" transform="translate(-35.03 -155.26)"/><rect class="cls-7" x="312.12" y="337.29" width="9.15" height="21.44" rx="4.37" ry="4.37" transform="translate(225.57 -274.43) rotate(35.46)"/><text class="cls-8" transform="translate(137.73 168.31)"><tspan class="cls-19">M<tspan class="cls-10" x="8.86" y="0">etanol</tspan></tspan><tspan class="cls-20" x="0" y="13.13">[</tspan><tspan class="cls-25" x="2.99" y="13.13">A</tspan><tspan class="cls-26" x="9.55" y="13.13">c</tspan><tspan class="cls-10" x="14.39" y="13.13">e</tspan><tspan class="cls-15" x="19.87" y="13.13">t</tspan><tspan x="23.43" y="13.13">onit</tspan><tspan class="cls-22" x="41.69" y="13.13">r</tspan><tspan x="45.55" y="13.13">yle]</tspan><tspan x="0" y="26.26">(when sta</tspan><tspan class="cls-27" x="44.34" y="26.26">r</tspan><tspan x="48.18" y="26.26">t)</tspan><tspan x="0" y="39.4">30s</tspan></text><line x1="587.74" y1="289" x2="403.93" y2="218.78"/><rect class="cls-1" x="495.83" y="151.88" width="29.21" height="29.21"/><text class="cls-2" transform="translate(505.52 173.5)">5</text><polygon class="cls-17" points="590.64 254.16 485.75 284.17 401.03 251.81 505.93 221.8 590.64 254.16"/><ellipse class="cls-28" cx="495.83" cy="251.54" rx="29.21" ry="18.7"/><polygon class="cls-5" points="541.61 204.08 504.02 256.88 496.74 259.56 497.62 252.31 535.21 199.53 541.61 204.08"/><line class="cls-6" x1="535.26" y1="199.47" x2="535.21" y2="199.53"/><line class="cls-6" x1="541.66" y1="204.02" x2="541.61" y2="204.08"/><line class="cls-6" x1="535.26" y1="199.46" x2="541.66" y2="204.02"/><path class="cls-5" d="M579.84,358.86a2.26,2.26,0,0,1-1.83.94,2.2,2.2,0,0,1-1.31-.42l-.06,0-6.4-4.55-.06-.05a2.26,2.26,0,0,1-.53-3.14,2.22,2.22,0,0,1,1.84-.94,2,2,0,0,1,.79.15,1.79,1.79,0,0,1,.51.27l6.52,4.64a1.9,1.9,0,0,1,.42.38A2.25,2.25,0,0,1,579.84,358.86Z" transform="translate(-35.03 -155.26)"/><rect class="cls-7" x="575.43" y="337.12" width="9.15" height="21.44" rx="4.37" ry="4.37" transform="translate(274.3 -427.2) rotate(35.46)"/><text class="cls-8" transform="translate(415.83 166.49)"><tspan class="cls-19">M</tspan><tspan x="8.86" y="0">etanol</tspan><tspan class="cls-20" x="0" y="13.13">[</tspan><tspan class="cls-21" x="2.99" y="13.13">A</tspan><tspan class="cls-15" x="9.55" y="13.13">c</tspan><tspan x="14.39" y="13.13">e</tspan><tspan class="cls-15" x="19.87" y="13.13">t</tspan><tspan x="23.43" y="13.13">onit</tspan><tspan class="cls-22" x="41.69" y="13.13">r</tspan><tspan x="45.55" y="13.13">yle]</tspan><tspan x="0" y="26.26">(when sta</tspan><tspan class="cls-23" x="44.34" y="26.26">r</tspan><tspan x="48.18" y="26.26">t)</tspan><tspan x="0" y="39.4">30s</tspan></text><text class="cls-29" transform="translate(32.75 199.47)">TBAI x4<tspan x="0" y="24.47">E</tspan><tspan class="cls-30" x="10.03" y="24.47">D</tspan><tspan x="23.1" y="24.47">T x4</tspan></text></svg>